HIERARCHY
ROOT Hips
{
	OFFSET 47.199902 -33.481617 84.384895
	CHANNELS 6 Xposition Yposition Zposition Xrotation Yrotation Zrotation
	JOINT spine
	{
		OFFSET 0.000000 -0.359108 6.244789
		CHANNELS 3 Xrotation Yrotation Zrotation
		JOINT spine1
		{
			OFFSET 0.000000 0.000000 9.069412
			CHANNELS 3 Xrotation Yrotation Zrotation
			JOINT spine2
			{
				OFFSET 0.000000 -0.000004 8.690140
				CHANNELS 3 Xrotation Yrotation Zrotation
				JOINT Neck
				{
					OFFSET 0.000000 -1.063725 22.311203
					CHANNELS 3 Xrotation Yrotation Zrotation
					JOINT Head
					{
						OFFSET 0.000000 0.000000 6.740814
						CHANNELS 3 Xrotation Yrotation Zrotation
						End Site
						{
							OFFSET 0.000000 5.380968 16.316498
						}
					}
				}
				JOINT RightShoulder
				{
					OFFSET -3.659161 0.509514 9.384682
					CHANNELS 3 Xrotation Yrotation Zrotation
					JOINT RightArm
					{
						OFFSET 0.000000 -0.000004 12.308907
						CHANNELS 3 Xrotation Yrotation Zrotation
						JOINT RightArmRoll
						{
							OFFSET 0.000000 0.000000 6.213745
							CHANNELS 3 Xrotation Yrotation Zrotation
							JOINT RightForeArm
							{
								OFFSET 0.000000 -0.000004 18.098495
								CHANNELS 3 Xrotation Yrotation Zrotation
								JOINT RightForeArmRoll
								{
									OFFSET 0.000000 0.000000 6.972794
									CHANNELS 3 Xrotation Yrotation Zrotation
									JOINT RightHand
									{
										OFFSET 0.000000 0.000000 13.992905
										CHANNELS 3 Xrotation Yrotation Zrotation
										End Site
										{
											OFFSET 0.000000 0.000000 0.100006
										}
									}
								}
							}
						}
					}
				}
				JOINT LeftShoulder
				{
					OFFSET 3.659161 0.509514 9.384682
					CHANNELS 3 Xrotation Yrotation Zrotation
					JOINT LeftArm
					{
						OFFSET 0.000000 -0.000004 12.308907
						CHANNELS 3 Xrotation Yrotation Zrotation
						JOINT LeftArmRoll
						{
							OFFSET 0.000000 0.000000 6.213745
							CHANNELS 3 Xrotation Yrotation Zrotation
							JOINT LeftForeArm
							{
								OFFSET 0.000000 -0.000004 18.098495
								CHANNELS 3 Xrotation Yrotation Zrotation
								JOINT LeftForeArmRoll
								{
									OFFSET 0.000000 0.000000 6.972794
									CHANNELS 3 Xrotation Yrotation Zrotation
									JOINT LeftHand
									{
										OFFSET 0.000000 0.000000 13.992905
										CHANNELS 3 Xrotation Yrotation Zrotation
										End Site
										{
											OFFSET 0.000000 0.000000 0.100006
										}
									}
								}
							}
						}
					}
				}
			}
		}
	}
	JOINT RightUpLeg
	{
		OFFSET -5.535149 0.851456 -1.014999
		CHANNELS 3 Xrotation Yrotation Zrotation
		JOINT RightUpLegRoll
		{
			OFFSET 0.000000 0.000000 16.407501
			CHANNELS 3 Xrotation Yrotation Zrotation
			JOINT RightLeg
			{
				OFFSET 0.000000 0.000004 -20.318100
				CHANNELS 3 Xrotation Yrotation Zrotation
				JOINT RightLegRoll
				{
					OFFSET 0.000000 -0.000004 20.384598
					CHANNELS 3 Xrotation Yrotation Zrotation
					JOINT RightFoot
					{
						OFFSET 0.000000 -0.000004 16.966797
						CHANNELS 3 Xrotation Yrotation Zrotation
						JOINT RightToeBase
						{
							OFFSET 0.000000 -0.000004 14.183403
							CHANNELS 3 Xrotation Yrotation Zrotation
							End Site
							{
								OFFSET 0.006012 0.791746 6.868896
							}
						}
					}
				}
			}
		}
	}
	JOINT LeftUpLeg
	{
		OFFSET 5.535149 0.851456 -1.014999
		CHANNELS 3 Xrotation Yrotation Zrotation
		JOINT LeftUpLegRoll
		{
			OFFSET 0.000000 0.000000 16.407600
			CHANNELS 3 Xrotation Yrotation Zrotation
			JOINT LeftLeg
			{
				OFFSET 0.000000 -0.000004 20.318100
				CHANNELS 3 Xrotation Yrotation Zrotation
				JOINT LeftLegRoll
				{
					OFFSET 0.000000 -0.000004 20.573105
					CHANNELS 3 Xrotation Yrotation Zrotation
					JOINT LeftFoot
					{
						OFFSET 0.000000 -0.000004 16.778305
						CHANNELS 3 Xrotation Yrotation Zrotation
						JOINT LeftToeBase
						{
							OFFSET 0.000000 0.000000 14.183395
							CHANNELS 3 Xrotation Yrotation Zrotation
							End Site
							{
								OFFSET -0.026943 0.791744 6.868896
							}
						}
					}
				}
			}
		}
	}
}
MOTION
Frames: 5
Frame Time: 0.041667
48.458801 5.287224 48.779003 -10.525789 -0.819161 -1.971988 2.705497 0.209470 -0.185783 9.415429 0.395673 -0.397988 11.060562 0.390908 -0.402756 -2.569022 3.087390 0.300862 10.290674 -1.717528 -0.133944 -5.702320 -59.292456 -6.701283 126.165888 -34.169172 105.527249 0.000001 0.000001 0.000001 47.801154 -15.426098 5.150564 0.000013 0.000004 -3.000020 -5.000148 -7.998754 0.000142 -22.943357 67.913725 26.870675 -61.120180 137.442572 70.194435 -0.000000 0.000031 -0.000002 49.285959 9.398172 -2.681776 0.000028 -0.000009 3.000000 -5.000325 7.998879 -0.000165 -78.781956 174.113557 -1.464513 179.999991 -0.000005 -0.921005 95.829822 3.982046 2.257162 0.000001 0.000001 0.879802 63.254218 5.553498 5.483529 25.456933 -7.355172 0.000009 -79.042132 177.797324 1.896693 0.000011 -0.000004 -1.309630 -91.477721 -4.798468 -2.699915 -0.000000 0.000003 -1.640419 67.918725 -6.737714 -2.588400 25.456962 7.349079 -0.000005 
48.458599 5.284111 48.777103 -10.516394 -0.821425 -1.973410 2.705287 0.208357 -0.185573 9.415945 0.393874 -0.396674 11.061058 0.389125 -0.401420 -2.568760 3.115852 0.294397 10.283993 -1.758349 -0.140058 -5.715234 -59.253496 -6.713857 126.202443 -34.148313 105.572267 0.000002 -0.000000 0.000002 47.800348 -15.417422 5.145537 0.000012 0.000005 -3.000020 -5.000148 -7.998753 0.000144 -22.940485 67.918090 26.867307 -61.132235 137.448623 70.228866 0.000001 0.000031 -0.000003 49.289056 9.409417 -2.686009 0.000027 -0.000008 3.000000 -5.000324 7.998879 -0.000164 -78.791703 174.112887 -1.464666 179.999991 -0.000005 -0.921005 95.832048 3.981622 2.256095 0.000002 0.000001 0.879831 63.254894 5.554348 5.482399 25.456931 -7.355172 0.000009 -79.053129 177.801094 1.898720 0.000011 -0.000004 -1.309630 -91.479831 -4.800228 -2.702031 -0.000000 0.000002 -1.640390 67.923615 -6.739039 -2.584961 25.456967 7.349079 -0.000006 
48.458599 5.281136 48.767899 -10.507295 -0.823715 -1.974800 2.705069 0.207251 -0.185398 9.416483 0.392066 -0.395408 11.061558 0.387332 -0.400131 -2.568222 3.144944 0.288049 10.277028 -1.800010 -0.146060 -5.728259 -59.214530 -6.726596 126.239354 -34.126702 105.618029 0.000002 0.000000 -0.000001 47.798996 -15.409055 5.140508 0.000014 0.000001 -3.000021 -5.000150 -7.998751 0.000143 -22.937640 67.922652 26.863959 -61.144024 137.454442 70.262832 0.000002 0.000031 -0.000002 49.292249 9.420643 -2.690238 0.000027 -0.000010 3.000000 -5.000325 7.998881 -0.000164 -78.801163 174.112109 -1.464262 179.999991 -0.000005 -0.921005 95.834207 3.981306 2.256050 0.000001 0.000001 0.879874 63.255461 5.555172 5.481267 25.456933 -7.355171 0.000009 -79.063913 177.804796 1.900130 0.000011 -0.000004 -1.309630 -91.482024 -4.801960 -2.704152 -0.000000 0.000002 -1.640340 67.928629 -6.740408 -2.581422 25.456967 7.349079 -0.000006 
48.456799 5.282745 48.768906 -10.498403 -0.826023 -1.976165 2.704828 0.206150 -0.185248 9.417051 0.390252 -0.394175 11.062156 0.385532 -0.398877 -2.567493 3.174467 0.281783 10.269866 -1.842276 -0.151984 -5.741425 -59.175762 -6.739524 126.276032 -34.104934 105.663546 -0.000001 0.000001 -0.000000 47.797363 -15.400833 5.135473 0.000014 0.000005 -3.000020 -5.000151 -7.998757 0.000143 -22.934862 67.927406 26.860684 -61.156530 137.459702 70.297707 -0.000001 0.000031 -0.000003 49.295548 9.431848 -2.694446 0.000027 -0.000008 3.000000 -5.000325 7.998882 -0.000164 -78.810636 174.111330 -1.463444 179.999991 -0.000005 -0.921005 95.836358 3.980982 2.254993 0.000001 0.000001 0.879927 63.256028 5.555996 5.480234 25.456936 -7.355171 0.000009 -79.074650 177.808307 1.902119 0.000011 -0.000004 -1.309630 -91.484216 -4.803690 -2.705264 -0.000000 0.000002 -1.640280 67.933642 -6.741777 -2.577983 25.456960 7.349079 -0.000006 
48.451099 5.298191 48.780998 -10.489609 -0.828341 -1.977513 2.704576 0.205053 -0.185112 9.417628 0.388435 -0.392962 11.062753 0.383730 -0.397642 -2.566644 3.204249 0.275563 10.262610 -1.884867 -0.157872 -5.754638 -59.137076 -6.752518 126.312041 -34.083665 105.708003 0.000000 -0.000000 0.000001 47.795464 -15.392839 5.130717 0.000013 0.000007 -3.000019 -5.000149 -7.998754 0.000144 -22.932135 67.932276 26.857463 -61.168066 137.465289 70.331189 -0.000001 0.000031 -0.000002 49.298847 9.443058 -2.698652 0.000026 -0.000009 2.999999 -5.000324 7.998882 -0.000164 -78.819823 174.110647 -1.463426 179.999991 -0.000005 -0.921005 95.838585 3.980560 2.253926 0.000001 0.000001 0.879985 63.256595 5.556778 5.479291 25.456933 -7.355171 0.000009 -79.085278 177.811776 1.903893 0.000011 -0.000004 -1.309630 -91.486532 -4.805500 -2.706384 -0.000000 0.000002 -1.640210 67.938765 -6.743192 -2.574346 25.456962 7.349080 -0.000005 
